<?xml version="1.0" standalone="no"?>
<!DOCTYPE svg PUBLIC "-//W3C//DTD SVG 20010904//EN"
 "http://www.w3.org/TR/2001/REC-SVG-20010904/DTD/svg10.dtd">
<svg version="1.0" xmlns="http://www.w3.org/2000/svg"
 width="400.000000pt" height="400.000000pt" viewBox="0 0 400.000000 400.000000"
 preserveAspectRatio="xMidYMid meet">

  <rect width="100%" height="100%" fill="white" rx="50" ry="50" />

<g transform="translate(0.000000,400.000000) scale(0.100000,-0.100000)"
fill="#000000" stroke="none">
<path d="M1360 3355 c-47 -35 -87 -99 -149 -240 -29 -66 -62 -139 -72 -163
-10 -23 -19 -47 -19 -52 0 -5 -11 -33 -24 -62 -33 -76 -80 -245 -142 -513 -17
-74 -18 -327 -2 -445 13 -95 13 -120 3 -273 -6 -90 -5 -115 10 -153 9 -25 15
-47 12 -50 -3 -3 -51 -7 -108 -10 -144 -6 -185 -13 -200 -30 -20 -24 -4 -27
78 -15 43 7 116 13 163 14 l84 2 27 -55 c15 -30 28 -60 28 -66 1 -7 -20 -15
-46 -18 -103 -14 -323 -67 -323 -77 0 -17 19 -17 95 2 72 17 267 49 302 49 21
0 85 -69 79 -86 -3 -7 -11 -14 -19 -14 -47 0 -310 -140 -347 -185 -24 -29 12
-16 134 48 139 73 243 117 279 117 13 0 37 -10 53 -23 15 -12 64 -41 109 -63
78 -40 80 -42 79 -77 -1 -20 -13 -64 -27 -99 -97 -240 -129 -320 -149 -373
-13 -33 -66 -143 -118 -245 -52 -102 -96 -188 -98 -192 -2 -5 317 -8 708 -8
645 0 712 1 706 16 -40 105 -136 616 -143 765 l-6 126 57 22 c31 11 62 21 69
21 17 0 125 57 165 87 29 22 40 24 83 19 98 -13 319 -93 381 -138 13 -9 20
-10 29 -1 27 27 -156 113 -325 153 -43 11 -81 21 -83 24 -7 7 66 95 87 106 10
5 70 5 146 0 159 -12 193 -17 263 -41 62 -22 71 -23 71 -9 0 13 -70 44 -120
54 -19 4 -102 13 -183 21 -82 7 -151 16 -154 19 -8 8 18 95 31 104 28 18 133
33 260 37 76 2 141 7 145 10 25 26 -139 33 -291 14 -49 -7 -90 -10 -92 -8 -3
2 2 29 11 59 17 65 11 206 -13 301 -13 50 -14 72 -5 123 18 95 24 328 12 466
-11 131 -27 231 -60 365 -11 44 -27 109 -36 145 -27 113 -66 222 -117 328 -46
97 -52 105 -94 123 -27 12 -53 18 -67 14 -34 -11 -93 -72 -112 -118 -10 -23
-26 -60 -36 -82 -10 -22 -34 -89 -53 -150 -19 -60 -66 -191 -104 -290 -38 -99
-73 -196 -77 -215 -12 -56 -19 -60 -114 -60 -47 0 -102 -4 -121 -10 -54 -16
-70 -6 -70 44 0 74 -61 283 -164 561 -15 39 -40 110 -57 159 -37 110 -84 178
-139 200 -49 20 -40 21 -80 -9z m307 -1326 c56 -27 98 -87 129 -183 23 -73 24
-86 14 -147 -13 -89 -25 -117 -63 -157 -55 -58 -115 -82 -204 -82 -100 0 -160
27 -225 99 -54 60 -74 130 -64 219 14 115 108 230 216 263 52 16 152 10 197
-12z m852 -19 c81 -41 121 -136 121 -286 0 -116 -10 -150 -59 -207 -35 -39
-120 -77 -174 -77 -81 0 -152 41 -186 109 -22 43 -41 127 -41 179 0 108 89
260 174 298 38 18 115 10 165 -16z m-434 -520 c0 -19 -51 -25 -89 -11 -41 16
-21 32 37 29 38 -2 52 -7 52 -18z"/>
<path d="M1622 1853 c-59 -23 -53 -199 8 -218 52 -16 80 23 80 111 0 90 -32
130 -88 107z"/>
<path d="M2320 1818 c-14 -23 -20 -50 -20 -90 0 -72 15 -104 53 -118 26 -9 34
-7 54 12 33 31 33 139 0 189 -31 47 -61 49 -87 7z"/>
<path d="M3 638 c2 -326 7 -603 11 -615 8 -23 10 -23 209 -23 l200 0 -7 57
c-4 32 -11 94 -16 138 -6 44 -14 107 -18 140 -10 66 -68 298 -83 330 -5 11
-18 48 -28 82 -24 76 -81 201 -123 268 -57 92 -140 215 -145 215 -2 0 -3 -267
0 -592z"/>
</g>
</svg>
